<svg width="140" height="140px" viewBox="-0.952 0.317 49.972 49.969" xmlns="http://www.w3.org/2000/svg">
  <defs>
    <clipPath id="clip-servicios_gt-logo-140x51px-white">
      <rect width="140" height="51"></rect>
    </clipPath>
  </defs>
  <g id="servicios_gt-logo-140x51px-white" clip-path="url(#clip-servicios_gt-logo-140x51px-white)">
    <g id="Group_26" data-name="Group 26" transform="translate(-238 -143.126)">
      <g id="servicios_gt_isotipo" transform="translate(238 152.126)">
        <path id="Path_34" data-name="Path 34" d="M6.239,0A6.239,6.239,0,1,1,0,6.239,6.239,6.239,0,0,1,6.239,0Z" transform="translate(12.993)" style="fill: rgb(0, 31, 84); paint-order: fill;"></path>
        <path id="Path_35" data-name="Path 35" d="M396.555,2929.572s2.589-.983,4.41.529,2.111,1.55,6.018,4.965,6.183,3.016,9.342,1.123c-2.547,2.443-9.224,9.038-10.749,10.628a2.78,2.78,0,0,1-3.472.307s-14.067-11.957-14.7-12.539-1.457-1.655.406-2.333S396.555,2929.572,396.555,2929.572Z" transform="translate(-386.662 -2914.118)" style="fill: rgb(0, 31, 84); paint-order: fill;"></path>
        <path id="Path_36" data-name="Path 36" d="M582.3,2811.854c6.893,7.27,10.627,3.823,12.912,1.913.51-.539,16.788-16.575,16.788-16.575s-1.731-3.969-8.047.48C596.266,2802.6,587.351,2808.574,582.3,2811.854Z" transform="translate(-563.774 -2794.105)" style="fill: rgb(0, 31, 84); paint-order: fill;"></path>
      </g>
    </g>
  </g>
</svg>