<svg
	xmlns="http://www.w3.org/2000/svg"
	xmlns:xlink="http://www.w3.org/1999/xlink" width="140" height="51" viewBox="0 0 140 51">
	<defs>
		<clipPath id="clip-servicios_gt-logo-140x51px-white">
			<rect width="140" height="51" />
		</clipPath>
	</defs>
	<g id="servicios_gt-logo-140x51px-white" clip-path="url(#clip-servicios_gt-logo-140x51px-white)">
		<g id="Group_26" data-name="Group 26" transform="translate(-238 -143.126)">
			<g id="servicios_gt_isotipo" transform="translate(238 152.126)">
				<path id="Path_34" data-name="Path 34" d="M6.239,0A6.239,6.239,0,1,1,0,6.239,6.239,6.239,0,0,1,6.239,0Z" transform="translate(12.993)" fill="#001f54" />
				<path id="Path_35" data-name="Path 35" d="M396.555,2929.572s2.589-.983,4.41.529,2.111,1.55,6.018,4.965,6.183,3.016,9.342,1.123c-2.547,2.443-9.224,9.038-10.749,10.628a2.78,2.78,0,0,1-3.472.307s-14.067-11.957-14.7-12.539-1.457-1.655.406-2.333S396.555,2929.572,396.555,2929.572Z" transform="translate(-386.662 -2914.118)" fill="#001f54" />
				<path id="Path_36" data-name="Path 36" d="M582.3,2811.854c6.893,7.27,10.627,3.823,12.912,1.913.51-.539,16.788-16.575,16.788-16.575s-1.731-3.969-8.047.48C596.266,2802.6,587.351,2808.574,582.3,2811.854Z" transform="translate(-563.774 -2794.105)" fill="#001f54" />
			</g>
			<path id="Path_4" data-name="Path 4" d="M1.62-38.949a2.446,2.446,0,0,1,.323-1,3,3,0,0,1,.624-.792,9.225,9.225,0,0,0,1.7.827,5.352,5.352,0,0,0,1.871.349,1.986,1.986,0,0,0,1.371-.416,1.292,1.292,0,0,0,.46-.991,1.5,1.5,0,0,0-.3-.867,2.369,2.369,0,0,0-1.057-.743L4.486-43.47a5.089,5.089,0,0,1-1.8-1.221A2.778,2.778,0,0,1,2-46.646a3.228,3.228,0,0,1,.54-1.84,3.688,3.688,0,0,1,1.482-1.265,4.807,4.807,0,0,1,2.136-.46,7.863,7.863,0,0,1,2.225.305,10.033,10.033,0,0,1,1.73.659,2.793,2.793,0,0,1-.243,1,2.3,2.3,0,0,1-.579.805,10.382,10.382,0,0,0-1.548-.584,5.575,5.575,0,0,0-1.566-.257,1.855,1.855,0,0,0-1.3.407,1.238,1.238,0,0,0-.438.929,1.06,1.06,0,0,0,.31.774,2.913,2.913,0,0,0,.929.579l2.15.885a5.574,5.574,0,0,1,1.407.832,3.556,3.556,0,0,1,.929,1.141,3.1,3.1,0,0,1,.327,1.424,3.593,3.593,0,0,1-.5,1.88,3.416,3.416,0,0,1-1.5,1.318,5.75,5.75,0,0,1-2.5.482,7.95,7.95,0,0,1-2.256-.345A7.652,7.652,0,0,1,1.62-38.949Zm9.846-10.9.115-.115h2.212v1.946q0,.372.009.637t.009.628V-40.9q0,.292-.009.535t-.009.553v1.973h-.964a1.316,1.316,0,0,1-1-.38,1.438,1.438,0,0,1-.363-1.035Zm6.493,4.91a2.578,2.578,0,0,1,.1.5,4.394,4.394,0,0,1,.031.473,4.216,4.216,0,0,1-.031.473,2.775,2.775,0,0,1-.1.5h-3q-.212,0-.575,0l-.743-.009q-.38,0-.655-.013v-1.893q.274-.009.655-.013l.743-.009q.363,0,.575,0Zm1.009-5.025a3.165,3.165,0,0,1,.062.5q.009.234.009.438a3.394,3.394,0,0,1-.044.5,3.06,3.06,0,0,1-.142.566H14.961q-.212,0-.575,0t-.743-.013L12.988-48v-1.964Zm.389,10.121a2.854,2.854,0,0,1-.314,1.508,1.369,1.369,0,0,1-1.243.491H12.988v-1.92l.978-.053q.473-.027,1.066-.027Zm9.448-6.467a3.394,3.394,0,0,1-.314,1.486,3.385,3.385,0,0,1-.818,1.1,3.331,3.331,0,0,1-1.07.646,1.717,1.717,0,0,1,.792.588,3.465,3.465,0,0,1,.518.978l.655,1.769a3.852,3.852,0,0,0,.367.779,2.149,2.149,0,0,0,.464.522,1.66,1.66,0,0,1-.677.509,2.228,2.228,0,0,1-.916.2,1.176,1.176,0,0,1-.947-.354,3.391,3.391,0,0,1-.549-1.053l-.752-2.106a2.494,2.494,0,0,0-.531-.9,1.457,1.457,0,0,0-1.106-.367H21.879v-1.8l.871-.04q.509-.022.986-.031t.734-.009a2.077,2.077,0,0,0,1.177-.279,1.459,1.459,0,0,0,.566-.717,2.658,2.658,0,0,0,.159-.916,2.7,2.7,0,0,0-.159-.938,1.439,1.439,0,0,0-.566-.708,2.1,2.1,0,0,0-1.177-.274q-.318,0-.761,0t-.867-.013v10.368a4.681,4.681,0,0,1-.606.071q-.323.018-.579.018-.221,0-.557-.018a4.461,4.461,0,0,1-.61-.071V-49.866l.124-.124q1.062-.018,2.066-.04t1.96-.022a5.4,5.4,0,0,1,2.167.407,3.217,3.217,0,0,1,1.469,1.239A3.828,3.828,0,0,1,28.806-46.31Zm7.626-3.654a3.588,3.588,0,0,1,.518-.071q.27-.018.509-.018a4.951,4.951,0,0,1,.544.035,2.546,2.546,0,0,1,.544.115l.1.142L35.238-37.87q-.416.044-.911.066t-.955.022a2.064,2.064,0,0,1-1.057-.226,1.416,1.416,0,0,1-.562-.871l-3.1-10.873a6.517,6.517,0,0,1,.7-.248A2.632,2.632,0,0,1,30.1-50.1a1.179,1.179,0,0,1,.818.274,1.769,1.769,0,0,1,.464.894l1.592,5.688q.133.478.261,1.017t.248,1.079q.119.54.208,1.035.044.2.177.2Zm2.884,0a4.234,4.234,0,0,1,.606-.071q.341-.018.571-.018.257,0,.579.018a4.951,4.951,0,0,1,.615.071v12.085a4.951,4.951,0,0,1-.615.071q-.323.018-.579.018-.23,0-.571-.018a4.234,4.234,0,0,1-.606-.071Zm10.713,4.5a4.462,4.462,0,0,0-.173-1.358,2.207,2.207,0,0,0-.672-1.079,1.987,1.987,0,0,0-1.349-.42,1.96,1.96,0,0,0-1.858,1.141,7.381,7.381,0,0,0-.593,3.318,5.621,5.621,0,0,0,.7,3.1A2.232,2.232,0,0,0,48.056-39.7a3.652,3.652,0,0,0,1.632-.372,7.968,7.968,0,0,0,1.446-.92,2.941,2.941,0,0,1,.7.677,2.162,2.162,0,0,1,.425.854,5.889,5.889,0,0,1-1.221.916,7,7,0,0,1-1.592.668,6.57,6.57,0,0,1-1.814.248,4.371,4.371,0,0,1-2.247-.535,4.143,4.143,0,0,1-1.46-1.433,6.482,6.482,0,0,1-.792-2.008,10.529,10.529,0,0,1-.243-2.26,8.22,8.22,0,0,1,.69-3.623,4.708,4.708,0,0,1,1.827-2.066,4.868,4.868,0,0,1,2.5-.664,5.2,5.2,0,0,1,2.336.491,3.833,3.833,0,0,1,1.53,1.3,3.146,3.146,0,0,1,.54,1.783,1.315,1.315,0,0,1-.341.991,1.409,1.409,0,0,1-1.013.327,2.944,2.944,0,0,1-.473-.035Q50.268-45.4,50.029-45.46Zm3.291-4.5a4.233,4.233,0,0,1,.606-.071q.341-.018.571-.018.257,0,.579.018a4.952,4.952,0,0,1,.615.071v12.085a4.952,4.952,0,0,1-.615.071q-.323.018-.579.018-.23,0-.571-.018a4.233,4.233,0,0,1-.606-.071Zm6.06,6.033a12.331,12.331,0,0,0,.1,1.53,5.564,5.564,0,0,0,.372,1.442,2.588,2.588,0,0,0,.792,1.07,2.149,2.149,0,0,0,1.367.407,2.134,2.134,0,0,0,1.358-.407,2.588,2.588,0,0,0,.792-1.07,5.446,5.446,0,0,0,.367-1.442,12.912,12.912,0,0,0,.093-1.53,12.8,12.8,0,0,0-.093-1.526,5.382,5.382,0,0,0-.367-1.433,2.593,2.593,0,0,0-.792-1.066,2.134,2.134,0,0,0-1.358-.407,2.149,2.149,0,0,0-1.367.407,2.593,2.593,0,0,0-.792,1.066,5.5,5.5,0,0,0-.372,1.433A12.225,12.225,0,0,0,59.38-43.93Zm-2.486,0a8.9,8.9,0,0,1,.553-3.256,4.768,4.768,0,0,1,1.69-2.221,4.847,4.847,0,0,1,2.871-.805,4.824,4.824,0,0,1,2.875.809,4.779,4.779,0,0,1,1.681,2.225,8.942,8.942,0,0,1,.548,3.247,8.9,8.9,0,0,1-.557,3.269,4.815,4.815,0,0,1-1.685,2.225,4.807,4.807,0,0,1-2.862.805,4.825,4.825,0,0,1-2.88-.814,4.793,4.793,0,0,1-1.685-2.234A8.977,8.977,0,0,1,56.894-43.93ZM67.2-38.949a2.446,2.446,0,0,1,.323-1,3,3,0,0,1,.624-.792,9.225,9.225,0,0,0,1.7.827,5.352,5.352,0,0,0,1.871.349,1.986,1.986,0,0,0,1.371-.416,1.292,1.292,0,0,0,.46-.991,1.5,1.5,0,0,0-.3-.867,2.369,2.369,0,0,0-1.057-.743l-2.132-.885a5.089,5.089,0,0,1-1.8-1.221,2.778,2.778,0,0,1-.69-1.955,3.228,3.228,0,0,1,.54-1.84A3.688,3.688,0,0,1,69.6-49.751a4.807,4.807,0,0,1,2.136-.46,7.863,7.863,0,0,1,2.225.305,10.032,10.032,0,0,1,1.73.659,2.793,2.793,0,0,1-.243,1,2.3,2.3,0,0,1-.579.805,10.383,10.383,0,0,0-1.548-.584,5.575,5.575,0,0,0-1.566-.257,1.855,1.855,0,0,0-1.3.407,1.238,1.238,0,0,0-.438.929,1.06,1.06,0,0,0,.31.774,2.913,2.913,0,0,0,.929.579l2.15.885a5.573,5.573,0,0,1,1.407.832,3.556,3.556,0,0,1,.929,1.141,3.1,3.1,0,0,1,.327,1.424,3.593,3.593,0,0,1-.5,1.88,3.416,3.416,0,0,1-1.5,1.318,5.75,5.75,0,0,1-2.5.482,7.95,7.95,0,0,1-2.256-.345A7.652,7.652,0,0,1,67.2-38.949Zm9.4-.018a3.611,3.611,0,0,1,.044-.469,1.782,1.782,0,0,1,.142-.513,2.16,2.16,0,0,1,.571-.2,3.043,3.043,0,0,1,.677-.08,3.056,3.056,0,0,1,.659.08,2.156,2.156,0,0,1,.579.2,1.782,1.782,0,0,1,.142.513,3.615,3.615,0,0,1,.044.469,3.615,3.615,0,0,1-.044.469,1.665,1.665,0,0,1-.142.5,1.586,1.586,0,0,1-.575.212,3.488,3.488,0,0,1-.663.071,3.407,3.407,0,0,1-.677-.071,1.673,1.673,0,0,1-.571-.212,1.665,1.665,0,0,1-.142-.5A3.611,3.611,0,0,1,76.6-38.967Zm11.518-6.644a1.225,1.225,0,0,0-.372.606,2.919,2.919,0,0,0-.124.863V-39.2a14.561,14.561,0,0,1-.1,1.889,5.47,5.47,0,0,1-.3,1.252,3.253,3.253,0,0,1-.478.849,2.909,2.909,0,0,1-1.283.916,5.107,5.107,0,0,1-1.849.314,8.8,8.8,0,0,1-1.685-.168,9.1,9.1,0,0,1-1.508-.416,2.924,2.924,0,0,1,.164-.911A2.25,2.25,0,0,1,81-36.26a5.9,5.9,0,0,0,1.2.4,5.58,5.58,0,0,0,1.2.142,2.22,2.22,0,0,0,1.2-.274,1.455,1.455,0,0,0,.6-.756,3.2,3.2,0,0,0,.173-1.084V-44.3A2.969,2.969,0,0,1,85.85-46a1.892,1.892,0,0,1,1.5-.8,1.786,1.786,0,0,1,.473.518A1.8,1.8,0,0,1,88.114-45.611Zm-8.051,3.353a5.992,5.992,0,0,1,.491-2.574,3.7,3.7,0,0,1,1.283-1.557,3.023,3.023,0,0,1,1.694-.522,3.432,3.432,0,0,1,1.407.261,3.566,3.566,0,0,1,.991.641,4.5,4.5,0,0,1,.663.761l-.354,1.92A4.378,4.378,0,0,0,85.12-44.66a2.012,2.012,0,0,0-1.2-.482,1.208,1.208,0,0,0-1.106.743,4.766,4.766,0,0,0-.389,2.159,4.085,4.085,0,0,0,.376,2.021,1.083,1.083,0,0,0,.924.624,2.026,2.026,0,0,0,1.194-.411,3.043,3.043,0,0,0,.938-1.128l.327,1.672a3.521,3.521,0,0,1-.717.849,3.871,3.871,0,0,1-1.035.65,3.091,3.091,0,0,1-1.239.252,2.666,2.666,0,0,1-1.752-.575,3.4,3.4,0,0,1-1.039-1.6A7.526,7.526,0,0,1,80.064-42.258Zm9.245-5.671a1.717,1.717,0,0,1,.274-1.1,1.216,1.216,0,0,1,.973-.327h.885l.124.124v8.847a.9.9,0,0,0,.173.584.718.718,0,0,0,.588.212h1.1a3.427,3.427,0,0,1,.186,1.124q0,.124-.009.261a1.1,1.1,0,0,1-.044.252q-.469.062-1.04.106t-1.1.044a2.145,2.145,0,0,1-1.579-.526,2.212,2.212,0,0,1-.526-1.623Zm4.4,1.247a3.246,3.246,0,0,1,.106.823,3.22,3.22,0,0,1-.106.849L90.6-45.062l-2.645.053a3.988,3.988,0,0,1-.088-.849,4.031,4.031,0,0,1,.088-.823l2.7.044Z" transform="translate(284.188 214.748)" fill="#001f54" />
		</g>
	</g>
</svg>