<?xml version="1.0" encoding="UTF-8" standalone="no"?>
<!-- Created with Inkscape (http://www.inkscape.org/) -->

<svg
   width="32"
   height="32"
   viewBox="0 0 8.4666666 8.4666666"
   version="1.1"
   id="svg5"
   inkscape:version="1.1.2 (b8e25be833, 2022-02-05)"
   sodipodi:docname="nophoto.svg"
   xmlns:inkscape="http://www.inkscape.org/namespaces/inkscape"
   xmlns:sodipodi="http://sodipodi.sourceforge.net/DTD/sodipodi-0.dtd"
   xmlns="http://www.w3.org/2000/svg"
   xmlns:svg="http://www.w3.org/2000/svg">
  <sodipodi:namedview
     id="namedview7"
     pagecolor="#ffffff"
     bordercolor="#666666"
     borderopacity="1.0"
     inkscape:pageshadow="2"
     inkscape:pageopacity="0.0"
     inkscape:pagecheckerboard="0"
     inkscape:document-units="mm"
     showgrid="false"
     inkscape:zoom="12.265489"
     inkscape:cx="8.8051935"
     inkscape:cy="19.93398"
     inkscape:window-width="1920"
     inkscape:window-height="991"
     inkscape:window-x="-9"
     inkscape:window-y="-9"
     inkscape:window-maximized="1"
     inkscape:current-layer="g2750"
     units="px" />
  <defs
     id="defs2" />
  <g
     inkscape:label="Capa 1"
     inkscape:groupmode="layer"
     id="layer1"
     style="display:inline">
    <circle
       style="font-variation-settings:normal;opacity:1;vector-effect:none;fill:none;fill-opacity:1;fill-rule:evenodd;stroke:#000000;stroke-width:0.425541;stroke-linecap:butt;stroke-linejoin:miter;stroke-miterlimit:4;stroke-dasharray:none;stroke-dashoffset:0;stroke-opacity:1;-inkscape-stroke:none;stop-color:#000000;stop-opacity:1"
       id="path856"
       cx="4.2333331"
       cy="4.2333331"
       r="3.4808583" />
    <path
       id="rect880"
       style="fill:#000000;fill-opacity:1;fill-rule:evenodd;stroke:#000000;stroke-width:0.205721;stroke-linecap:square;stroke-linejoin:round;paint-order:fill markers stroke"
       d="M 1.9918227,2.7602075 V 5.7064591 H 5.4242504 L 4.9631428,5.2591071 A 1.2590338,1.2590338 0 0 1 4.233348,5.4923866 1.2590338,1.2590338 0 0 1 2.974309,4.2333482 1.2590338,1.2590338 0 0 1 3.1867903,3.5356619 L 2.3875333,2.7602075 Z m 1.0506231,0 0.4618144,0.4480859 A 1.2590338,1.2590338 0 0 1 4.233348,2.9743072 1.2590338,1.2590338 0 0 1 5.4923575,4.2333482 1.2590338,1.2590338 0 0 1 5.2807012,4.9318279 L 6.0790744,5.7064591 H 6.4748439 V 2.7602075 Z m 2.267949,0.1246948 H 6.3408685 V 3.4340027 H 5.3103948 Z" />
    <path
       id="path1914"
       style="font-variation-settings:normal;opacity:1;fill:none;fill-opacity:1;fill-rule:evenodd;stroke:#000000;stroke-width:0.285024;stroke-linecap:butt;stroke-linejoin:miter;stroke-miterlimit:4;stroke-dasharray:none;stroke-dashoffset:0;stroke-opacity:1;stop-color:#000000;stop-opacity:1"
       d="m 4.2333186,3.4742134 a 0.75912333,0.75912333 0 0 0 -0.3596833,0.09244 L 4.9098238,4.5719977 A 0.75912333,0.75912333 0 0 0 4.9924537,4.2333197 0.75912333,0.75912333 0 0 0 4.2333186,3.4742134 Z M 3.5568432,3.894669 a 0.75912333,0.75912333 0 0 0 -0.08263,0.3386507 0.75912333,0.75912333 0 0 0 0.7591056,0.7591336 0.75912333,0.75912333 0 0 0 0.359713,-0.092437 z" />
  </g>
  <g
     inkscape:label="Capa 1 copia"
     inkscape:groupmode="layer"
     id="g2455"
     style="display:none">
    <circle
       style="font-variation-settings:normal;opacity:1;vector-effect:none;fill:none;fill-opacity:1;fill-rule:evenodd;stroke:#000000;stroke-width:7.46501;stroke-linecap:butt;stroke-linejoin:miter;stroke-miterlimit:4;stroke-dasharray:none;stroke-dashoffset:0;stroke-opacity:1;-inkscape-stroke:none;stop-color:#000000;stop-opacity:1"
       id="circle2449"
       cx="102.63689"
       cy="71.131256"
       r="61.06245" />
    <path
       id="path2451"
       style="fill:#000000;fill-opacity:1;fill-rule:evenodd;stroke:#000000;stroke-width:3.60884;stroke-linecap:square;stroke-linejoin:round;paint-order:fill markers stroke"
       d="M 63.315516,45.289165 V 96.973347 H 141.95826 V 45.289165 Z m 58.215564,2.187464 h 18.07694 v 9.632487 h -18.07694 z m -18.89393,1.568378 A 22.086418,22.086418 0 0 1 124.72314,71.131514 22.086418,22.086418 0 0 1 102.63715,93.218022 22.086418,22.086418 0 0 1 80.550641,71.131514 22.086418,22.086418 0 0 1 102.63715,49.045007 Z" />
    <circle
       style="font-variation-settings:normal;opacity:1;fill:none;fill-opacity:1;fill-rule:evenodd;stroke:#000000;stroke-width:5;stroke-linecap:butt;stroke-linejoin:miter;stroke-miterlimit:4;stroke-dasharray:none;stroke-dashoffset:0;stroke-opacity:1;stop-color:#000000;stop-opacity:1"
       id="circle2453"
       cx="102.63689"
       cy="71.131256"
       r="13.316811" />
  </g>
  <g
     inkscape:groupmode="layer"
     id="layer2"
     inkscape:label="Capa 2"
     style="display:none" />
  <g
     inkscape:groupmode="layer"
     id="g2700"
     inkscape:label="Capa 2 copia"
     style="display:none" />
  <g
     inkscape:groupmode="layer"
     id="g2750"
     inkscape:label="Capa 2 copia copia"
     style="display:inline">
    <path
       style="color:#000000;fill:#000000;stroke-width:0.0570048;stroke-linecap:round;-inkscape-stroke:none"
       d="m 0.49906735,0.38559992 a 0.22801956,0.22801956 0 0 0 -0.16021499,0.0692506 0.22801956,0.22801956 0 0 0 0.0049,0.3224341 L 7.8053806,8.0166838 a 0.22801956,0.22801956 0 0 0 0.3224338,-0.00479 0.22801956,0.22801956 0 0 0 -0.0049,-0.322434 L 0.66128637,0.44995332 A 0.22801956,0.22801956 0 0 0 0.49906735,0.38559992 Z"
       id="path2748" />
    <path
       style="fill:none;stroke:#000000;stroke-width:0.0150825px;stroke-linecap:butt;stroke-linejoin:miter;stroke-opacity:1"
       d="M 0.31968266,0.40054192 8.146984,8.0661247"
       id="path3231" />
  </g>
  <g
     inkscape:groupmode="layer"
     id="g2762"
     inkscape:label="Capa 2 copia copia copia"
     style="display:none">
    <path
       style="color:#000000;fill:#000000;stroke-width:50;stroke-linecap:round;stroke-miterlimit:4;stroke-dasharray:none"
       d="m 34.306291,3.6324929 a 1.134037,1.1716572 0 0 0 -0.796817,0.3558451 1.134037,1.1716572 0 0 0 0.02436,1.6567965 L 70.643649,42.844108 a 1.134037,1.1716572 0 0 0 1.603599,-0.0246 1.134037,1.1716572 0 0 0 -0.02435,-1.656797 L 35.113074,3.9631657 A 1.134037,1.1716572 0 0 0 34.306291,3.6324929 Z"
       id="path2760" />
  </g>
  <g
     inkscape:groupmode="layer"
     id="layer3"
     inkscape:label="Capa 3" />
</svg>
