<?xml version="1.0" encoding="UTF-8" standalone="no"?>
<!-- Created with Inkscape (http://www.inkscape.org/) -->

<svg
   width="8.5in"
   height="11in"
   viewBox="0 0 215.9 279.4"
   version="1.1"
   id="svg37274"
   inkscape:version="1.1.2 (b8e25be833, 2022-02-05)"
   sodipodi:docname="template4.svg"
   xmlns:inkscape="http://www.inkscape.org/namespaces/inkscape"
   xmlns:sodipodi="http://sodipodi.sourceforge.net/DTD/sodipodi-0.dtd"
   xmlns="http://www.w3.org/2000/svg"
   xmlns:svg="http://www.w3.org/2000/svg">
  <sodipodi:namedview
     id="namedview37276"
     pagecolor="#ffffff"
     bordercolor="#666666"
     borderopacity="1.0"
     inkscape:pageshadow="2"
     inkscape:pageopacity="0.0"
     inkscape:pagecheckerboard="true"
     inkscape:document-units="mm"
     showgrid="false"
     units="in"
     inkscape:zoom="0.71090067"
     inkscape:cx="340.41324"
     inkscape:cy="523.98319"
     inkscape:window-width="1920"
     inkscape:window-height="991"
     inkscape:window-x="-9"
     inkscape:window-y="-9"
     inkscape:window-maximized="1"
     inkscape:current-layer="layer4" />
  <defs
     id="defs37271" />
  <g
     inkscape:groupmode="layer"
     id="layer4"
     inkscape:label="Capa 5"
     style="display:inline">
    <rect
       style="fill:#ffffff;fill-rule:evenodd;stroke-width:0.263529"
       id="rect39340"
       width="217.8866"
       height="279.39999"
       x="-0.37532127"
       y="0.1317749" />
  </g>
  <g
     inkscape:groupmode="layer"
     id="layer1"
     inkscape:label="Capa 3"
     style="display:inline" />
  <g
     inkscape:groupmode="layer"
     id="layer2"
     inkscape:label="Capa 4"
     style="display:inline">
    <path
       style="fill:#00ffff;fill-opacity:1;stroke:none;stroke-width:0.264583px;stroke-linecap:butt;stroke-linejoin:miter;stroke-opacity:1"
       d="M -1.3377963,247.31391 H 83.147173 L 129.29754,143.47557 H -0.59342633 Z"
       id="path1310" />
    <path
       id="path1528"
       style="fill:#00ffff;fill-opacity:1;stroke:none;stroke-width:0.264583px;stroke-linecap:butt;stroke-linejoin:miter;stroke-opacity:1"
       d="M 144.34934,0.1317749 126.91371,40.567549 h 70.71403 L 217.51128,0.1317749 Z m 18.41437,10.2861941 c 1.89814,0 2.93167,1.173607 3.10059,3.520715 l -1.82728,0.133325 c -0.0489,-1.351365 -0.47088,-2.026749 -1.26659,-2.026749 -0.41785,0 -0.75152,0.217552 -1.00045,0.65319 -0.24449,0.435637 -0.36691,1.280126 -0.36691,2.533695 0,1.12021 0.11333,1.891769 0.34004,2.314071 0.2267,0.417856 0.56719,0.626835 1.0206,0.626835 0.72903,0 1.15783,-0.609272 1.28675,-1.827279 l 1.84691,0.113688 c -0.0667,0.986852 -0.37989,1.791467 -0.93999,2.413806 -0.56011,0.617894 -1.30036,0.926559 -2.22054,0.926559 -1.12021,0 -1.97379,-0.415685 -2.56056,-1.246952 -0.58678,-0.831268 -0.88005,-1.975848 -0.88005,-3.433899 0,-1.471388 0.291,-2.622786 0.87333,-3.454053 0.58233,-0.831267 1.44727,-1.246952 2.59415,-1.246952 z m -15.9029,0.140043 h 5.4007 v 1.560628 h -3.40082 v 2.380216 h 2.62051 v 1.560112 h -2.62051 v 3.600814 h -1.99988 z m 7.52099,0 h 2.01383 l 2.60036,9.10177 h -2.04691 l -0.4532,-1.880506 h -2.56057 l -0.447,1.880506 h -1.8402 z m 11.66905,0 h 5.67459 v 1.706872 h -1.86035 v 7.394898 h -2.00039 v -7.394898 h -1.81385 z m 6.36809,0 h 2.0004 v 5.201233 c 0,0.733471 0.0331,1.244296 0.0997,1.533239 0.0667,0.288944 0.20448,0.509286 0.41341,0.660425 0.21337,0.146694 0.47359,0.220142 0.78032,0.220142 0.33339,0 0.59764,-0.08254 0.79323,-0.247014 0.19559,-0.164475 0.31573,-0.382028 0.36018,-0.65319 0.0445,-0.271162 0.0667,-0.775686 0.0667,-1.513602 v -5.201233 h 1.6738 v 5.121134 c 0,1.022415 -0.0603,1.784882 -0.18035,2.287199 -0.11558,0.502317 -0.41567,0.933393 -0.90021,1.293461 -0.48009,0.360068 -1.14235,0.540019 -1.98696,0.540019 -0.79126,0 -1.41365,-0.130986 -1.86707,-0.393258 -0.45342,-0.266717 -0.77571,-0.637982 -0.96686,-1.113627 -0.19115,-0.48009 -0.28629,-1.324579 -0.28629,-2.533695 z m 7.90804,0 h 2.8603 c 0.55565,0 0.98043,0.02675 1.27382,0.0801 0.29783,0.0489 0.59792,0.186702 0.9002,0.413412 0.30228,0.222264 0.5375,0.529172 0.70642,0.920357 0.17337,0.386739 0.26045,0.822361 0.26045,1.306897 0,1.137992 -0.42705,1.938061 -1.28054,2.40037 l 1.62729,3.869531 2.70009,-8.990665 h 2.01383 l 2.60036,9.10177 h -2.0469 l -0.45321,-1.880506 h -2.56056 l -0.44701,1.880506 h -1.76009 -2.18023 l -1.21388,-3.600814 h -0.99994 v 3.600814 h -2.0004 z m 2.0004,1.473811 v 2.55385 h 0.88005 c 0.78237,0 1.17357,-0.437895 1.17357,-1.313615 0,-0.302279 -0.0581,-0.548859 -0.17363,-0.740007 -0.11558,-0.195592 -0.25111,-0.327095 -0.4067,-0.393774 -0.15114,-0.07113 -0.37551,-0.106454 -0.67334,-0.106454 z m -27.12548,0.473357 -0.88676,3.713985 h 1.8004 z m 34.99373,0 -0.88728,3.713985 h 1.8004 z m -15.4683,8.393286 0.48731,0.726054 -1.60456,1.004589 -0.36535,-0.365352 z m -13.82862,2.095996 c 1.23792,0 1.91194,0.765263 2.0221,2.295984 l -1.19114,0.08733 c -0.0319,-0.881324 -0.30737,-1.3224 -0.82631,-1.3224 -0.27251,0 -0.49032,0.14222 -0.65267,0.426331 -0.15945,0.28411 -0.23875,0.835068 -0.23875,1.652612 0,0.73057 0.0738,1.233537 0.2217,1.508953 0.14785,0.272513 0.36937,0.40876 0.66507,0.40876 0.47545,0 0.75515,-0.397309 0.83923,-1.19166 l 1.20457,0.0739 c -0.0435,0.643599 -0.24759,1.168191 -0.61288,1.574065 -0.36528,0.402974 -0.84786,0.604612 -1.44797,0.604612 -0.73057,0 -1.2875,-0.27074 -1.67018,-0.812868 -0.38268,-0.542132 -0.57413,-1.288757 -0.57413,-2.239657 0,-0.9596 0.19021,-1.710446 0.56999,-2.252576 0.37978,-0.54213 0.94341,-0.813387 1.69137,-0.813386 z m 13.08964,0 c 0.70158,0 1.23637,0.255088 1.60456,0.765328 0.36818,0.51024 0.55242,1.274268 0.55242,2.29185 0,2.040961 -0.71779,3.06131 -2.15284,3.06131 -0.71318,0 -1.25095,-0.259307 -1.61334,-0.778245 -0.36239,-0.521838 -0.54364,-1.28288 -0.54364,-2.283065 0,-2.038062 0.71779,-3.057178 2.15284,-3.057178 z m 12.54549,0 c 1.23791,0 1.91193,0.765263 2.0221,2.295984 l -1.19114,0.08733 c -0.0319,-0.881324 -0.30737,-1.3224 -0.82631,-1.3224 -0.27251,0 -0.48981,0.14222 -0.65216,0.426331 -0.15945,0.28411 -0.23926,0.835068 -0.23926,1.652612 0,0.73057 0.0738,1.233537 0.22169,1.508953 0.14786,0.272513 0.36937,0.40876 0.66508,0.40876 0.47545,0 0.75567,-0.397309 0.83974,-1.19166 l 1.20458,0.0739 c -0.0435,0.643599 -0.24811,1.168191 -0.6134,1.574065 -0.36529,0.402974 -0.84786,0.604612 -1.44797,0.604612 -0.73057,0 -1.28751,-0.27074 -1.67019,-0.812868 -0.38268,-0.542132 -0.5736,-1.288757 -0.5736,-2.239657 0,-0.9596 0.18969,-1.710446 0.56947,-2.252576 0.37978,-0.54213 0.9434,-0.813387 1.69137,-0.813386 z m -39.97224,0.09147 h 3.60909 v 1.017509 h -2.30477 v 1.378727 h 1.79162 v 1.021645 h -1.79162 v 1.456756 h 2.30477 v 1.060918 h -3.60909 z m 4.24832,0 h 1.30483 v 4.822445 h 1.91306 v 1.11311 h -3.21789 z m 3.79202,0 h 3.6096 v 1.017509 h -2.30477 v 1.378727 h 1.79162 v 1.021645 h -1.79162 v 1.456756 h 2.30477 v 1.060918 h -3.6096 z m 8.44083,0 h 3.70055 v 1.113111 h -1.21337 v 4.822444 h -1.30431 V 24.19904 h -1.18287 z m 4.15272,0 h 1.86551 c 0.36239,0 0.63962,0.0174 0.83096,0.05219 0.19424,0.03189 0.38991,0.121898 0.58705,0.269751 0.19714,0.144955 0.35078,0.344844 0.46095,0.599964 0.11307,0.25222 0.1695,0.536143 0.1695,0.852144 0,0.742167 -0.27847,1.26429 -0.83509,1.565796 l 1.0914,2.595707 h -1.42162 l -0.79168,-2.348177 h -0.65215 v 2.348177 h -1.30483 z m 9.81077,0 h 1.44797 l 1.52652,3.687631 v -3.687631 h 1.00873 v 5.935555 h -1.16531 l -1.80919,-4.296378 v 4.296378 h -1.00872 z m 5.05292,0 h 1.30483 v 5.935555 h -1.30483 z m 8.40155,0 h 1.31362 l 1.69602,5.935555 h -1.33532 l -0.29559,-1.226283 h -1.67018 l -0.29094,1.226283 h -1.20044 z m -21.96041,0.961182 v 1.665531 h 0.57412 c 0.51024,0 0.76533,-0.285674 0.76533,-0.856795 0,-0.197138 -0.0378,-0.357997 -0.11317,-0.482658 -0.0754,-0.12756 -0.16363,-0.213346 -0.2651,-0.256832 -0.0986,-0.04639 -0.24501,-0.06925 -0.43925,-0.06925 z m 5.48803,0.0083 c -0.26961,0 -0.46703,0.133776 -0.59169,0.400492 -0.12466,0.266717 -0.18707,0.798518 -0.18707,1.595769 0,0.782753 0.0612,1.311568 0.18293,1.586983 0.12467,0.275413 0.32332,0.413412 0.59583,0.413412 0.26962,0 0.46652,-0.132025 0.59118,-0.395843 0.12756,-0.263816 0.1912,-0.798605 0.1912,-1.604552 0,-0.80015 -0.0619,-1.331951 -0.18655,-1.595769 -0.12466,-0.266716 -0.32331,-0.400492 -0.59583,-0.400492 z m 17.00723,0.30024 -0.57826,2.422074 h 1.17409 z" />
  </g>
  <g
     inkscape:groupmode="layer"
     id="layer6"
     inkscape:label="Capa 7"
     style="display:inline">
    <rect
       style="display:inline;fill:#ffffff;fill-opacity:1;fill-rule:evenodd;stroke:#000000;stroke-width:0.4;stroke-miterlimit:4;stroke-dasharray:none;stroke-opacity:1"
       id="rect37496-1"
       width="193.53384"
       height="98.255638"
       x="10.519028"
       y="115.13385" />
  </g>
  <g
     inkscape:groupmode="layer"
     id="layer5"
     inkscape:label="Capa 6"
     style="display:inline">
    <rect
       style="display:inline;fill:#000080;fill-opacity:1;fill-rule:evenodd;stroke-width:0.264583"
       id="rect42860"
       width="193.53384"
       height="14.171963"
       x="10.519011"
       y="115.13385" />
    <rect
       style="display:inline;fill:#00ffff;fill-opacity:1;fill-rule:evenodd;stroke-width:0.264583"
       id="rect42860-7"
       width="193.53384"
       height="14.171963"
       x="10.519072"
       y="143.06175" />
    <rect
       style="display:inline;fill:#00ffff;fill-opacity:1;fill-rule:evenodd;stroke-width:0.264583"
       id="rect42860-7-5"
       width="193.53384"
       height="14.171963"
       x="10.676054"
       y="170.44612" />
    <rect
       style="display:inline;fill:#00ffff;fill-opacity:1;fill-rule:evenodd;stroke-width:0.264583"
       id="rect42860-7-5-3"
       width="193.53384"
       height="14.171963"
       x="10.519072"
       y="199.21733" />
    <rect
       style="display:inline;fill:none;fill-opacity:1;fill-rule:evenodd;stroke:#550000;stroke-width:0.4;stroke-miterlimit:4;stroke-dasharray:none;stroke-opacity:1"
       id="rect37496"
       width="193.53384"
       height="98.255638"
       x="10.519011"
       y="115.13385" />
  </g>
</svg>
