<svg width="8.5in" height="11in" viewBox="0 0 215.9 279.4" version="1.1" id="template1v4" sodipodi:docname="template1-4.svg" inkscape:version="1.1.2 (b8e25be833, 2022-02-05)"
	xmlns:inkscape="http://www.inkscape.org/namespaces/inkscape"
	xmlns:sodipodi="http://sodipodi.sourceforge.net/DTD/sodipodi-0.dtd"
	xmlns="http://www.w3.org/2000/svg"
	xmlns:svg="http://www.w3.org/2000/svg">
	<g inkscape:groupmode="layer" id="layer10" inkscape:label="Capa 10" style="display:inline">
		<rect style="fill:#ffffff;fill-opacity:1;fill-rule:evenodd;stroke:none;stroke-width:0.899999;stroke-linecap:round;stroke-linejoin:bevel;stroke-miterlimit:4;stroke-dasharray:7.2, 3.6;stroke-dashoffset:0;stroke-opacity:1;paint-order:fill markers stroke" id="rect80147" width="218.43842" height="282.30682" x="-1.2047689" y="-0.03705442" />
	</g>
	<g inkscape:groupmode="layer" id="layer6" inkscape:label="Capa 6" style="display:inline">
		<circle style="font-variation-settings:normal;opacity:1;fill:none;fill-opacity:1;fill-rule:evenodd;stroke:#813f91;stroke-width:0.9;stroke-linecap:butt;stroke-linejoin:miter;stroke-miterlimit:4;stroke-dasharray:7.2, 3.6;stroke-dashoffset:0;stroke-opacity:1;stop-color:#000000;stop-opacity:1" id="path36974" cx="37.633499" cy="247.6442" r="29.738359" class="tertiary-color-circle" inkscape:export-filename="C:\Users\willi\path36974.svg" inkscape:export-xdpi="34.66" inkscape:export-ydpi="34.66" />
	</g>
	<g inkscape:groupmode="layer" id="layer7" inkscape:label="Capa 7" style="display:inline">
		<path style="fill:#612e8a;fill-opacity:1;stroke:none;stroke-width:0.264583px;stroke-linecap:butt;stroke-linejoin:miter;stroke-opacity:1" d="M -1.3130325,281.60179 C 24.006487,255.7097 56.251241,234.10696 87.902044,232.65192 c 31.650806,-1.45504 29.550626,2.68655 75.530166,17.36932 45.97954,14.68277 53.80143,-50.14419 53.80143,-50.14419 v 82.39273 z" id="path41189" class="primary-color" sodipodi:nodetypes="czzccc" inkscape:export-filename="C:\Users\willi\path36974.svg" inkscape:export-xdpi="34.66" inkscape:export-ydpi="34.66" />
	</g>
	<g inkscape:groupmode="layer" id="layer9" inkscape:label="Capa 9" style="display:inline">
		<path style="fill:#813f91;fill-opacity:1;stroke:none;stroke-width:0.264583px;stroke-linecap:butt;stroke-linejoin:miter;stroke-opacity:1" d="m 55.792319,280.54062 c -13.448871,-10.67806 -12.887626,-15.75208 -8.947825,-19.47467 3.20021,-4.58649 10.397196,-6.99293 21.316876,-7.3688 26.141555,1.92999 28.987818,15.97353 38.94936,26.31713 z" id="path46487" sodipodi:nodetypes="ccccc" class="tertiary-color" inkscape:export-filename="C:\Users\willi\path36974.svg" inkscape:export-xdpi="34.66" inkscape:export-ydpi="34.66" />
	</g>
	<g inkscape:groupmode="layer" id="layer8" inkscape:label="Capa 8" style="display:inline">
		<path style="fill:#de317a;fill-opacity:1;stroke:none;stroke-width:0.264583px;stroke-linecap:butt;stroke-linejoin:miter;stroke-opacity:1" d="m 172.90355,280.01429 c -20.43963,-0.44266 -39.30024,-6.75266 -59.73988,-20.52737 -9.85371,-7.98055 -20.302409,-14.09115 -35.001788,-6.84246 -11.96539,4.75398 -12.301493,11.74436 -6.052942,20.00102 3.142215,4.23511 5.710785,6.17563 8.158311,7.63198 z" id="path43496" sodipodi:nodetypes="cccccc" class="secondary-color" inkscape:export-filename="C:\Users\willi\path36974.svg" inkscape:export-xdpi="34.66" inkscape:export-ydpi="34.66" />
	</g>
	<g inkscape:groupmode="layer" id="layer5" inkscape:label="Capa 5" style="display:inline">
		<circle style="font-variation-settings:normal;opacity:1;fill:none;fill-opacity:1;fill-rule:evenodd;stroke:#813f91;stroke-width:1;stroke-linecap:butt;stroke-linejoin:miter;stroke-miterlimit:4;stroke-dasharray:none;stroke-dashoffset:0;stroke-opacity:1;stop-color:#000000;stop-opacity:1" id="path28755" class="tertiary-color-circle" cx="219.58647" cy="11.909775" r="38.706764" clip-path="url(#clipPath36845)" />
	</g>
	<g inkscape:groupmode="layer" id="g31195" inkscape:label="Capa 5 copia" style="display:inline">
		<circle style="font-variation-settings:normal;opacity:1;fill:none;fill-opacity:1;fill-rule:evenodd;stroke:#de317a;stroke-width:1;stroke-linecap:butt;stroke-linejoin:miter;stroke-miterlimit:4;stroke-dasharray:none;stroke-dashoffset:0;stroke-opacity:1;stop-color:#000000;stop-opacity:1" id="circle31193" cx="219.58647" cy="15.259398" r="21.586464" class="secondary-color-circle" clip-path="url(#clipPath36855)" />
	</g>
	<g inkscape:groupmode="layer" id="layer3" inkscape:label="Capa 3" style="display:inline">
		<path style="display:inline;fill:#612e8a;fill-opacity:1;stroke:none;stroke-width:0.239294px;stroke-linecap:butt;stroke-linejoin:miter;stroke-opacity:1" d="m 181.34066,-0.76205713 c 0,0 6.75211,14.54520213 -46.78842,24.90893713 -5.43804,1.052635 -6.91597,0.419361 -16.49376,2.01965 -9.57777,1.600279 -5.75588,6.687838 -17.84019,10.098215 C 88.134009,39.675121 72.072599,35.292168 58.142385,36.937958 35.117691,39.658226 44.954763,50.774447 0.91914448,61.846894 -1.6035083,62.4812 -3.8731486,68.005557 -3.8731486,68.005557 V -1.1321727 Z" id="path888-2" class="primary-color" sodipodi:nodetypes="cszzssccc" inkscape:export-filename="C:\Users\willi\path36974.svg" inkscape:export-xdpi="34.66" inkscape:export-ydpi="34.66" />
	</g>
	<g inkscape:groupmode="layer" id="layer4" inkscape:label="Capa 4" style="display:inline">
		<path style="fill:#813f91;fill-opacity:1;stroke:none;stroke-width:0.239294px;stroke-linecap:butt;stroke-linejoin:miter;stroke-opacity:1" d="M 19.095941,33.235283 C 35.926304,18.396447 52.75667,8.1633876 69.587033,-0.42544545 L 143.30404,-1.09866 c 0,0 -11.83324,12.79025 -26.25537,13.464292 -14.42213,0.674041 -11.41311,-0.75907 -20.533059,2.019644 -9.119937,2.778712 -7.841755,6.464843 -18.513396,6.395537 C 67.330571,20.711508 60.743919,17.889458 53.093276,21.11742 36.876574,27.959576 27.134925,31.757577 19.095941,33.235283 Z" id="path24585" sodipodi:nodetypes="ccczzzsc" class="tertiary-color" inkscape:export-filename="C:\Users\willi\path36974.svg" inkscape:export-xdpi="34.66" inkscape:export-ydpi="34.66" />
	</g>
	<g inkscape:groupmode="layer" id="layer2" inkscape:label="Capa 2" style="display:inline">
		<path style="fill:#de317a;fill-opacity:1;stroke:none;stroke-width:0.239671;stroke-linecap:butt;stroke-linejoin:miter;stroke-miterlimit:4;stroke-dasharray:none;stroke-opacity:1" d="M 11.017366,27.176352 C 34.401683,7.9748569 54.056641,-0.97090403 70.260247,-0.42544545 l 63.618783,-0.33660728 c 0,0 2.097,8.69670963 -25.91876,11.10803973 -28.015772,2.41133 -17.375926,4.073403 -35.343773,6.732146 -17.967851,2.658743 -29.439528,-3.611832 -38.036621,3.029466 -8.597094,6.641299 -23.56251,7.068753 -23.56251,7.068753 z" id="path11755" sodipodi:nodetypes="ccczzzc" class="secondary-color" inkscape:export-filename="C:\Users\willi\path36974.svg" inkscape:export-xdpi="34.66" inkscape:export-ydpi="34.66" />
	</g>
</svg>